<svg xmlns="http://www.w3.org/2000/svg" xmlns:xlink="http://www.w3.org/1999/xlink" width="500" zoomAndPan="magnify" viewBox="0 0 375 374.999991" height="500" preserveAspectRatio="xMidYMid meet" version="1.0"><defs><g/></defs><g fill="#9333ea" fill-opacity="1"><g transform="translate(39.616859, 299.46783)"><g><path d="M 103.34375 4.636719 C 151.375 4.636719 191.125 -19.542969 191.125 -69.558594 C 191.125 -121.5625 146.738281 -132.496094 111.625 -141.4375 C 86.785156 -147.398438 66.910156 -152.367188 66.910156 -168.597656 C 66.910156 -183.835938 83.140625 -190.792969 99.371094 -190.792969 C 118.25 -190.792969 134.8125 -181.515625 134.8125 -161.3125 L 184.167969 -161.3125 C 184.167969 -207.683594 154.023438 -236.171875 100.695312 -236.171875 C 49.355469 -236.171875 16.5625 -210.996094 16.5625 -166.613281 C 16.5625 -116.59375 58.960938 -106.328125 94.070312 -97.714844 C 119.246094 -92.082031 140.445312 -87.113281 140.445312 -68.898438 C 140.445312 -51.671875 121.894531 -41.734375 103.015625 -41.734375 C 82.476562 -41.734375 63.929688 -52.667969 63.929688 -74.859375 L 13.25 -74.859375 C 13.25 -25.175781 50.015625 4.636719 103.34375 4.636719 Z M 103.34375 4.636719 "/></g></g></g><g fill="#9333ea" fill-opacity="1"><g transform="translate(244.652131, 299.46783)"><g><path d="M 19.542969 0 L 70.882812 0 L 70.882812 -51.671875 L 19.542969 -51.671875 Z M 19.542969 0 "/></g></g></g></svg>